HIERARCHY
ROOT Hips
{
	OFFSET 0.000000 0.000000 0.000000
	CHANNELS 6 Xposition Yposition Zposition Zrotation Yrotation Xrotation 
	JOINT LHipJoint
	{
		OFFSET 0.000000 0.000000 0.000000
		CHANNELS 3 Zrotation Yrotation Xrotation
		JOINT LeftUpLeg
		{
			OFFSET 1.363060 -1.794630 0.839290
			CHANNELS 3 Zrotation Yrotation Xrotation
			JOINT LeftLeg
			{
				OFFSET 2.448110 -6.726130 0.000000
				CHANNELS 3 Zrotation Yrotation Xrotation
				JOINT LeftFoot
				{
					OFFSET 2.562200 -7.039590 0.000000
					CHANNELS 3 Zrotation Yrotation Xrotation
					JOINT LeftToeBase
					{
						OFFSET 0.157640 -0.433110 2.322550
						CHANNELS 3 Zrotation Yrotation Xrotation
						End Site
						{
							OFFSET 0.000000 0.000000 0.000000
						}
					}
				}
			}
		}
	}
	JOINT RHipJoint
	{
		OFFSET 0.000000 0.000000 0.000000
		CHANNELS 3 Zrotation Yrotation Xrotation
		JOINT RightUpLeg
		{
			OFFSET -1.305520 -1.794630 0.839290
			CHANNELS 3 Zrotation Yrotation Xrotation
			JOINT RightLeg
			{
				OFFSET -2.542530 -6.985550 0.000000
				CHANNELS 3 Zrotation Yrotation Xrotation
				JOINT RightFoot
				{
					OFFSET -2.568260 -7.056230 0.000000
					CHANNELS 3 Zrotation Yrotation Xrotation
					JOINT RightToeBase
					{
						OFFSET -0.164730 -0.452590 2.363150
						CHANNELS 3 Zrotation Yrotation Xrotation
						End Site
						{
							OFFSET 0.000000 0.000000 0.000000
						}
					}
				}
			}
		}
	}
}
MOTION
Frames: 30
Frame Time: 0.008333
11.799216 12.337465 2.905861 130.167917 -87.280829 -39.524893 -9.513991 -0.808493 4.082399 -0.636854 -18.412057 -141.700299 -0.019630 10.628422 82.778178 3.680824 3.416765 -32.263101 -2.515600 -0.000000 -43.204600 10.145859 1.373240 5.505891 -1.562802 9.218332 -142.651012 -0.456065 -11.900571 84.538756 -2.262127 1.354835 -30.130813 1.006000 0.000000 -60.241701
11.768780 12.316071 2.908241 130.652919 -87.270701 -39.838755 -9.536095 -0.802452 4.112489 -0.603032 -18.433286 -141.885256 0.008472 10.670069 83.018347 3.708174 3.410761 -32.500995 -2.551500 -0.000000 -43.147599 10.160938 1.363230 5.546336 -1.608843 9.212203 -142.828945 -0.482696 -11.928824 84.744223 -2.281056 1.378241 -30.327697 1.017300 0.000000 -60.246200
11.737385 12.295034 2.910431 131.121945 -87.255742 -40.140444 -9.557261 -0.796606 4.142649 -0.571179 -18.456391 -142.058141 0.036973 10.709511 83.257930 3.735559 3.404196 -32.740919 -2.587500 0.000001 -43.119700 10.176176 1.355575 5.586992 -1.657209 9.197903 -142.998124 -0.511545 -11.955624 84.951495 -2.297598 1.402725 -30.510410 1.026900 0.000001 -60.306299
11.705032 12.274449 2.912351 131.560782 -87.235911 -40.418881 -9.576827 -0.790592 4.172136 -0.543693 -18.482165 -142.216260 0.066050 10.746494 83.496466 3.762260 3.397104 -32.977605 -2.623000 -0.000000 -43.137699 10.191583 1.350732 5.627362 -1.706996 9.175484 -143.157342 -0.542941 -11.980923 85.160978 -2.311954 1.426431 -30.677745 1.035200 0.000001 -60.422499
11.671651 12.253938 2.914232 131.879335 -87.217964 -40.579696 -9.595395 -0.785141 4.204559 -0.510968 -18.507173 -142.366718 0.096452 10.780702 83.732982 3.787911 3.391043 -33.204172 -2.657000 0.000000 -43.214800 10.208342 1.345792 5.668859 -1.752839 9.151252 -143.309005 -0.575900 -12.005473 85.370113 -2.325720 1.445223 -30.831440 1.043300 0.000000 -60.586600
11.637069 12.233790 2.915722 132.238233 -87.193836 -40.787455 -9.613306 -0.777894 4.237229 -0.487359 -18.535472 -142.501083 0.126843 10.812799 83.964630 3.813305 3.387910 -33.422743 -2.690800 -0.000000 -43.348100 10.225163 1.342810 5.712525 -1.803058 9.122382 -143.449289 -0.610168 -12.027154 85.575393 -2.339551 1.458074 -30.975809 1.051999 -0.000000 -60.800601
11.601291 12.213890 2.917043 132.537525 -87.172397 -40.943683 -9.629986 -0.770799 4.271480 -0.466790 -18.561058 -142.618500 0.157844 10.841733 84.191434 3.838347 3.388316 -33.633132 -2.724200 0.000000 -43.530200 10.241892 1.339911 5.757161 -1.848513 9.095300 -143.571155 -0.644253 -12.046096 85.775799 -2.355952 1.462398 -31.124187 1.063000 -0.000000 -61.019600
11.564185 12.194007 2.918325 132.819345 -87.156448 -41.087796 -9.646973 -0.764159 4.309730 -0.446090 -18.580491 -142.723467 0.189366 10.868109 84.413162 3.864217 3.394345 -33.839895 -2.758700 0.000000 -43.749800 10.258044 1.334785 5.805058 -1.889964 9.076248 -143.674899 -0.676553 -12.061582 85.967261 -2.377327 1.455534 -31.287273 1.078000 0.000000 -61.236600
11.525738 12.174371 2.919769 132.989106 -87.152371 -41.130125 -9.663091 -0.759720 4.352378 -0.420367 -18.590486 -142.814124 0.221458 10.890819 84.629466 3.891609 3.406325 -34.049300 -2.795100 -0.000000 -43.985300 10.273113 1.326550 5.854687 -1.921100 9.067907 -143.754480 -0.705739 -12.073760 86.149672 -2.406010 1.436728 -31.481315 1.098600 0.000000 -61.405200
11.485875 12.155216 2.921354 133.033245 -87.158660 -41.060516 -9.677262 -0.757603 4.398106 -0.393569 -18.592732 -142.881927 0.253403 10.908675 84.839255 3.921981 3.425687 -34.270930 -2.835500 0.000001 -44.210299 10.286483 1.316814 5.905269 -1.942141 9.066006 -143.799662 -0.731183 -12.081205 86.322028 -2.443271 1.406443 -31.718528 1.125900 0.000000 -61.503099
11.444420 12.136601 2.923232 132.946934 -87.178271 -40.874289 -9.689728 -0.759594 4.447830 -0.361887 -18.583147 -142.924510 0.285239 10.920739 85.042593 3.956444 3.453558 -34.512747 -2.881400 0.000000 -44.409500 10.297363 1.304820 5.957201 -1.953905 9.072580 -143.807871 -0.752311 -12.083119 86.483103 -2.490445 1.363627 -32.006312 1.160800 0.000000 -61.528800
11.401321 12.119134 2.925186 132.698686 -87.205712 -40.549629 -9.697552 -0.765538 4.497704 -0.332968 -18.566911 -142.927367 0.316516 10.925072 85.240193 3.996060 3.490438 -34.784673 -2.934600 0.000000 -44.556800 10.305084 1.295067 6.008092 -1.959532 9.076666 -143.769135 -0.770590 -12.078313 86.637541 -2.547233 1.309832 -32.350363 1.203400 -0.000000 -61.460400
11.356427 12.103050 2.927396 132.272226 -87.243692 -40.071784 -9.700625 -0.777736 4.548510 -0.299181 -18.539280 -142.891191 0.348194 10.920641 85.433994 4.041495 3.538404 -35.090543 -2.996300 -0.000001 -44.650400 10.308691 1.287654 6.057698 -1.960454 9.079160 -143.677953 -0.786830 -12.065374 86.785009 -2.613774 1.241853 -32.746568 1.254300 -0.000001 -61.323800
11.309646 12.088769 2.929746 131.645565 -87.289309 -39.424373 -9.697102 -0.797170 4.598532 -0.261289 -18.501138 -142.804854 0.380992 10.904994 85.624802 4.093080 3.600243 -35.431422 -3.067500 0.000000 -44.689600 10.307789 1.285654 6.104958 -1.961523 9.073674 -143.529040 -0.803424 -12.043045 86.929136 -2.689060 1.156882 -33.186454 1.313900 0.000000 -61.132101
11.260757 12.076552 2.932216 130.809828 -87.342060 -38.600814 -9.686295 -0.825758 4.647416 -0.212569 -18.449627 -142.666914 0.416496 10.876524 85.814738 4.150945 3.680430 -35.804024 -3.149100 0.000000 -44.689700 10.301576 1.290753 6.149007 -1.966904 9.058951 -143.317296 -0.822651 -12.009646 87.071276 -2.772419 1.048486 -33.656691 1.382800 -0.000001 -60.927000
11.209675 12.066693 2.934545 129.752789 -87.396933 -37.592359 -9.666764 -0.862714 4.694931 -0.151119 -18.388972 -142.472435 0.455811 10.833131 86.003164 4.215264 3.785429 -36.200139 -3.242200 -0.000001 -44.671600 10.290689 1.306199 6.190761 -1.985825 9.028561 -143.042259 -0.847671 -11.963911 87.214288 -2.862893 0.908986 -34.141487 1.462200 -0.000000 -60.730899
11.156188 12.059605 2.936591 128.499253 -87.449291 -36.426978 -9.637650 -0.908647 4.739963 -0.076076 -18.320928 -142.210487 0.500035 10.771724 86.187022 4.286267 3.924491 -36.609174 -3.348400 0.000000 -44.662100 10.274611 1.334643 6.229943 -2.026232 8.978916 -142.699177 -0.880838 -11.903691 87.357294 -2.959973 0.728623 -34.624893 1.553700 -0.000000 -60.579399
11.099979 12.056396 2.936979 127.447657 -87.462358 -35.515553 -9.598191 -0.958273 4.771987 -0.027196 -18.272587 -141.842494 0.546251 10.690183 86.355360 4.365838 4.109506 -37.026045 -3.471900 -0.000000 -44.670200 10.250396 1.386371 6.266324 -2.119287 8.879633 -142.277955 -0.926160 -11.823277 87.499907 -3.061056 0.502191 -35.092532 1.657300 0.000000 -60.495000
11.041385 12.055901 2.937615 126.039396 -87.494111 -34.287253 -9.549757 -1.022003 4.810150 0.076469 -18.199019 -141.427146 0.603169 10.587454 86.520361 4.451473 4.347890 -37.425764 -3.610500 0.000000 -44.748900 10.221080 1.446171 6.301328 -2.228564 8.787365 -141.783705 -0.980949 -11.726651 87.636658 -3.173241 0.204500 -35.539587 1.782100 0.000000 -60.487699
10.979982 12.058903 2.937110 124.672979 -87.505007 -33.147878 -9.494115 -1.093880 4.846294 0.192107 -18.131530 -140.925847 0.666264 10.461982 86.666195 4.545742 4.651867 -37.804798 -3.769100 -0.000000 -44.891700 10.183726 1.520817 6.337837 -2.385888 8.673906 -141.212155 -1.047464 -11.608602 87.763738 -3.295966 -0.169064 -35.963875 1.929500 0.000000 -60.534600
10.915757 12.065736 2.935456 123.397663 -87.497293 -32.152572 -9.431259 -1.174602 4.879729 0.318418 -18.069271 -140.329398 0.735541 10.312524 86.788327 4.649266 5.029394 -38.158011 -3.950600 0.000000 -45.096800 10.137221 1.609647 6.374738 -2.590272 8.546224 -140.551950 -1.124594 -11.467158 87.875536 -3.432299 -0.628944 -36.372026 2.104500 -0.000000 -60.609300
10.848584 12.076354 2.932484 122.254678 -87.468728 -31.342048 -9.362494 -1.261727 4.912370 0.451986 -18.019080 -139.636806 0.809578 10.139559 86.880239 4.763327 5.485741 -38.483714 -4.157300 0.000000 -45.349900 10.082270 1.710863 6.414840 -2.844243 8.408262 -139.801245 -1.210499 -11.301592 87.965758 -3.585280 -1.181001 -36.775808 2.311400 0.000001 -60.665700
10.778899 12.091851 2.928050 121.317076 -87.421824 -30.809989 -9.287096 -1.358245 4.935928 0.572345 -17.974695 -138.814453 0.886649 9.942250 86.938536 4.886795 6.019048 -38.787187 -4.390700 -0.000001 -45.626599 10.014553 1.825205 6.450509 -3.138491 8.267398 -138.927590 -1.303408 -11.108826 88.030088 -3.757149 -1.829949 -37.190754 2.555000 -0.000001 -60.683700
10.706163 12.111416 2.922365 120.461646 -87.359032 -30.419312 -9.207530 -1.456881 4.959545 0.684193 -17.947525 -137.882381 0.963978 9.723411 86.956056 5.021084 6.625858 -39.073057 -4.651400 0.000000 -45.898200 9.940137 1.947888 6.490299 -3.469856 8.128117 -137.947124 -1.399371 -10.892957 88.061428 -3.949689 -2.570201 -37.633388 2.838200 -0.000000 -60.578800
10.631278 12.136730 2.915104 119.759671 -87.281805 -30.273755 -9.121890 -1.560983 4.967392 0.751014 -17.928518 -136.790732 1.038488 9.483740 86.933527 5.162507 7.291771 -39.355176 -4.938400 -0.000000 -46.130900 9.853669 2.082742 6.519559 -3.821175 7.993957 -136.810854 -1.496714 -10.651597 88.060203 -4.161353 -3.395836 -38.118323 3.163400 -0.000001 -60.348200
10.553773 12.167087 2.906725 119.048780 -87.197409 -30.198189 -9.033290 -1.663922 4.968138 0.777290 -17.921169 -135.561748 1.107243 9.228025 86.868001 5.309756 8.001145 -39.640998 -5.248800 -0.000000 -46.302100 9.761913 2.223764 6.544592 -4.179998 7.872035 -135.536791 -1.591182 -10.391443 88.021893 -4.389969 -4.290787 -38.652195 3.530199 -0.000000 -59.953200
10.474079 12.203256 2.897231 118.295382 -87.109300 -30.174790 -8.942369 -1.764621 4.955371 0.741780 -17.918880 -134.176320 1.167104 8.960319 86.761722 5.457900 8.730911 -39.940448 -5.578100 0.000001 -46.396700 9.665468 2.370508 6.557706 -4.526078 7.765211 -134.102406 -1.680102 -10.115449 87.946884 -4.629722 -5.236101 -39.234003 3.935700 0.000000 -59.410000
10.390251 12.240399 2.886454 117.508054 -87.013168 -30.165031 -8.859215 -1.847558 4.957327 0.654675 -17.933797 -132.717814 1.217718 8.696024 86.637301 5.605073 9.450735 -40.264453 -5.918900 -0.000000 -46.418600 9.577995 2.510607 6.589579 -4.869191 7.675770 -132.597088 -1.765508 -9.836086 87.860028 -4.875849 -6.205229 -39.858162 4.373700 0.000000 -58.756100
10.303499 12.277231 2.875049 116.712793 -86.909003 -30.183859 -8.786203 -1.912389 4.975529 0.519624 -17.963932 -131.221258 1.260647 8.442577 86.513924 5.747084 10.141925 -40.611082 -6.264600 -0.000000 -46.388601 9.502651 2.639578 6.638788 -5.193214 7.600005 -131.054176 -1.846750 -9.562706 87.774482 -5.117507 -7.164064 -40.497972 4.829500 0.000000 -58.068000
10.213375 12.320303 2.863542 115.471774 -86.824213 -29.858890 -8.716852 -1.969173 4.984373 0.306141 -17.967882 -129.567887 1.287254 8.189754 86.355190 5.870166 10.766321 -40.969664 -6.597701 0.000000 -46.356499 9.433334 2.761602 6.668582 -5.431621 7.549550 -129.337423 -1.912868 -9.289118 87.647879 -5.347591 -8.101551 -41.135146 5.296899 0.000000 -57.403999
